/* XPM */
static char * gprename_debian_menu_icon_xpm[] = {
"32 32 515 2",
"  	c None",
". 	c #37BE5B",
"+ 	c #42D34F",
"@ 	c #41D151",
"# 	c #34BA5C",
"$ 	c #3AC459",
"% 	c #47D843",
"& 	c #49DA3E",
"* 	c #47D842",
"= 	c #3BC955",
"- 	c #33B055",
"; 	c #46D646",
"> 	c #42CC43",
", 	c #3CBA3D",
"' 	c #41CA42",
") 	c #48D940",
"! 	c #48D840",
"~ 	c #3CC956",
"{ 	c #2DAE61",
"] 	c #2D8956",
"^ 	c #40CE51",
"/ 	c #3AB744",
"( 	c #36B144",
"_ 	c #47D840",
": 	c #3ECF53",
"< 	c #41D24F",
"[ 	c #287D44",
"} 	c #8CA8AE",
"| 	c #8FA9AC",
"1 	c #90A9AB",
"2 	c #95AEB0",
"3 	c #7CAF9D",
"4 	c #73C290",
"5 	c #779B8B",
"6 	c #96A3A1",
"7 	c #A0ABAA",
"8 	c #9EA7A7",
"9 	c #72867C",
"0 	c #47C752",
"a 	c #49DA3D",
"b 	c #48D83E",
"c 	c #44D545",
"d 	c #4B8B63",
"e 	c #A1A4A4",
"f 	c #A8ADAC",
"g 	c #A8ACAC",
"h 	c #A9AEAD",
"i 	c #9EA2A2",
"j 	c #6F8F9D",
"k 	c #AFDDEF",
"l 	c #BFF0FE",
"m 	c #C5F3FE",
"n 	c #CDF5FE",
"o 	c #D4F9FE",
"p 	c #D6F8FE",
"q 	c #D5F7FE",
"r 	c #D7F8FE",
"s 	c #DFFCFD",
"t 	c #E9FDFB",
"u 	c #EBFDFB",
"v 	c #E9F8F6",
"w 	c #80C8A3",
"x 	c #40D052",
"y 	c #46D741",
"z 	c #46D740",
"A 	c #43D447",
"B 	c #7EB294",
"C 	c #F6F9F9",
"D 	c #F9FEFE",
"E 	c #F9FEFD",
"F 	c #F8FEFE",
"G 	c #EFF5F5",
"H 	c #AEB3B3",
"I 	c #ADE3F9",
"J 	c #B7EAFE",
"K 	c #BDEFFE",
"L 	c #C1F2FE",
"M 	c #CBF5FE",
"N 	c #D4F8FE",
"O 	c #D4F6FE",
"P 	c #D5F6FE",
"Q 	c #D8F9FE",
"R 	c #E0FDFC",
"S 	c #E9FCFA",
"T 	c #CCE1DE",
"U 	c #88C1A5",
"V 	c #86C098",
"W 	c #83BD96",
"X 	c #81BB95",
"Y 	c #83BC98",
"Z 	c #AAC2BB",
"` 	c #F5FCFC",
" .	c #F7FEFE",
"..	c #F6FCFC",
"+.	c #9FA4A4",
"@.	c #8AB6D0",
"#.	c #ABE4FE",
"$.	c #B6E9FE",
"%.	c #BAECFE",
"&.	c #BBECFB",
"*.	c #98DACF",
"=.	c #66C194",
"-.	c #4DB476",
";.	c #4EB676",
">.	c #60C28A",
",.	c #6CCC95",
"'.	c #80D3A2",
").	c #83D2A4",
"!.	c #B9E8D7",
"~.	c #68A8E6",
"{.	c #62A9E7",
"].	c #64A8E4",
"^.	c #CDEBF6",
"/.	c #C6E6F4",
"(.	c #74B2E2",
"_.	c #5AA1DC",
":.	c #6CACDE",
"<.	c #94C5E3",
"[.	c #E3F5FA",
"}.	c #E1E6E6",
"|.	c #92C4E4",
"1.	c #A9E1FE",
"2.	c #ACE5FF",
"3.	c #A2DFEE",
"4.	c #3FB178",
"5.	c #089934",
"6.	c #008C28",
"7.	c #099030",
"8.	c #199C42",
"9.	c #139D3C",
"0.	c #18AA45",
"a.	c #63D386",
"b.	c #4AC771",
"c.	c #7CCFA2",
"d.	c #1678E2",
"e.	c #47A4F5",
"f.	c #1A7FE4",
"g.	c #5BA0DC",
"h.	c #1067CF",
"i.	c #0B6BCF",
"j.	c #3690E3",
"k.	c #6CB6F5",
"l.	c #6CB0EA",
"m.	c #6AA7D5",
"n.	c #E1F4F9",
"o.	c #F6FEFE",
"p.	c #EEF5F5",
"q.	c #8CC1E7",
"r.	c #A1DBFE",
"s.	c #A4DEFB",
"t.	c #3FB27A",
"u.	c #26B051",
"v.	c #2CB558",
"w.	c #24A554",
"x.	c #9FDBDB",
"y.	c #BBEBF8",
"z.	c #AFE7E0",
"A.	c #4EC677",
"B.	c #98EDB2",
"C.	c #7EE29D",
"D.	c #7ED3A4",
"E.	c #2C92E9",
"F.	c #87D0FE",
"G.	c #439EF1",
"H.	c #0C62D3",
"I.	c #82BBE8",
"J.	c #C9E8F4",
"K.	c #A4D2EC",
"L.	c #6AB3F0",
"M.	c #8CD0FE",
"N.	c #78B8EB",
"O.	c #90BFDE",
"P.	c #F3FDFD",
"Q.	c #F0FAFB",
"R.	c #ECF5F5",
"S.	c #86BBE6",
"T.	c #96D4FF",
"U.	c #86CFDA",
"V.	c #16A745",
"W.	c #7FE09D",
"X.	c #3EC067",
"Y.	c #71C9AD",
"Z.	c #B4E9FE",
"`.	c #BBECFE",
" +	c #B6ECEE",
".+	c #54C97C",
"++	c #98EEB3",
"@+	c #84E5A2",
"#+	c #7BD2A2",
"$+	c #3194E7",
"%+	c #88D1FE",
"&+	c #409EF2",
"*+	c #8DC5EF",
"=+	c #E9FEFE",
"-+	c #ECFEFE",
";+	c #EAFEFE",
">+	c #82BFED",
",+	c #8FD2FD",
"'+	c #96D2FA",
")+	c #6EAAD6",
"!+	c #E4F7FA",
"~+	c #E8F8F9",
"{+	c #E4F3F3",
"]+	c #88BBE7",
"^+	c #92CEFF",
"/+	c #67C2B6",
"(+	c #2FB85A",
"_+	c #97EEB2",
":+	c #40C26C",
"<+	c #86D4C2",
"[+	c #AFE8FE",
"}+	c #B0E7EE",
"|+	c #56C97D",
"1+	c #99EEB3",
"2+	c #84E5A1",
"3+	c #77D1A1",
"4+	c #3094E6",
"5+	c #3E9BF1",
"6+	c #AAD9F4",
"7+	c #E6FEFE",
"8+	c #E8FEFE",
"9+	c #96CAEE",
"0+	c #90D3FC",
"a+	c #9CD8FC",
"b+	c #6CA8D6",
"c+	c #D8F1F5",
"d+	c #E1F8F9",
"e+	c #DBF0F1",
"f+	c #86B9E7",
"g+	c #8ECCFF",
"h+	c #60BEB2",
"i+	c #31B85B",
"j+	c #42C26B",
"k+	c #7ACDBA",
"l+	c #A9E3FE",
"m+	c #ACE6FF",
"n+	c #A7E3EA",
"o+	c #57C87B",
"p+	c #84E4A2",
"q+	c #72CEA0",
"r+	c #2F93E7",
"s+	c #3E9AF1",
"t+	c #A4D7F5",
"u+	c #DFFEFE",
"v+	c #E2FEFD",
"w+	c #E4FEFD",
"x+	c #8EC4ED",
"y+	c #91D2FC",
"z+	c #94D2FB",
"A+	c #6DA9D6",
"B+	c #D8F2F5",
"C+	c #DAF8F8",
"D+	c #D8F2F2",
"E+	c #7EB6E8",
"F+	c #88CBFF",
"G+	c #72C4D6",
"H+	c #16A644",
"I+	c #84E3A2",
"J+	c #4FC974",
"K+	c #52BA8F",
"L+	c #A1DCFC",
"M+	c #A6DFFC",
"N+	c #75CAB0",
"O+	c #3CBD64",
"P+	c #9CF0B6",
"Q+	c #83E4A2",
"R+	c #6CCE9F",
"S+	c #2E92E7",
"T+	c #A2D6F6",
"U+	c #DDFEFE",
"V+	c #DEFEFE",
"W+	c #D8F7FC",
"X+	c #6DB0E8",
"Y+	c #89CCFD",
"Z+	c #7DBDEF",
"`+	c #80B6DB",
" @	c #D8F4F6",
".@	c #DAF8F9",
"+@	c #D5F2F4",
"@@	c #78B4E8",
"#@	c #84C8FF",
"$@	c #84C8FA",
"%@	c #2AA36C",
"&@	c #31B65B",
"*@	c #51C876",
"=@	c #12A33E",
"-@	c #33A66A",
";@	c #2AA55D",
">@	c #099A32",
",@	c #36BC61",
"'@	c #9CEFB6",
")@	c #82E4A0",
"!@	c #6BCD9E",
"~@	c #2D92E8",
"{@	c #409DF2",
"]@	c #70B6EE",
"^@	c #ABDEF9",
"/@	c #A9D9F6",
"(@	c #66A9E0",
"_@	c #58A1E1",
":@	c #74B5ED",
"<@	c #5FA0D4",
"[@	c #C0E5F2",
"}@	c #DAF6F8",
"|@	c #D5F3F5",
"1@	c #71B0E7",
"2@	c #7EC3FE",
"3@	c #81C5FE",
"4@	c #76C2E8",
"5@	c #25A268",
"6@	c #0C9E39",
"7@	c #069730",
"8@	c #028C28",
"9@	c #12983E",
"0@	c #5BBB92",
"a@	c #56C67A",
"b@	c #78DE98",
"c@	c #72CCA5",
"d@	c #2B91EB",
"e@	c #8AD2FE",
"f@	c #449FF2",
"g@	c #005CD3",
"h@	c #025FD1",
"i@	c #0367D2",
"j@	c #0C74D5",
"k@	c #368BD8",
"l@	c #64A4D6",
"m@	c #BBE2F3",
"n@	c #DEF9FA",
"o@	c #DBF8F9",
"p@	c #DDF8F9",
"q@	c #DBF4F3",
"r@	c #6AABE7",
"s@	c #76BFFE",
"t@	c #7AC2FE",
"u@	c #7FC4FE",
"v@	c #82C5F9",
"w@	c #6CBECE",
"x@	c #5FB7B5",
"y@	c #6CBEC8",
"z@	c #8DCEF1",
"A@	c #8BD0E0",
"B@	c #4AC16E",
"C@	c #95EBB0",
"D@	c #57CE7B",
"E@	c #7DCEB8",
"F@	c #288DED",
"G@	c #88D0FE",
"H@	c #66B3F3",
"I@	c #86C9F6",
"J@	c #7DC2F4",
"K@	c #96CCF0",
"L@	c #B8E3F8",
"M@	c #D2F6FE",
"N@	c #DCFDFE",
"O@	c #DDFCFC",
"P@	c #E1FCFB",
"Q@	c #E2FAFA",
"R@	c #DCF4F3",
"S@	c #66A8E7",
"T@	c #71BAFE",
"U@	c #73BBFD",
"V@	c #2E9D7E",
"W@	c #3DA492",
"X@	c #5DB4C3",
"Y@	c #71BDDA",
"Z@	c #78C0E0",
"`@	c #6CBFC9",
" #	c #36AB72",
".#	c #37BB5F",
"+#	c #62D284",
"@#	c #34B460",
"##	c #91D4E6",
"$#	c #1D82ED",
"%#	c #7FC9FE",
"&#	c #3394EE",
"*#	c #86C8F9",
"=#	c #94C2D3",
"-#	c #A5D3E1",
";#	c #A5CEDB",
">#	c #A3C8D2",
",#	c #BEE2E9",
"'#	c #ABD0D5",
")#	c #A2C6CC",
"!#	c #BADCE0",
"~#	c #B0CFD4",
"{#	c #D4F3F5",
"]#	c #61A2DF",
"^#	c #70BAFE",
"/#	c #70BAFC",
"(#	c #0F8A4B",
"_#	c #007E1F",
":#	c #018724",
"<#	c #048A2C",
"[#	c #058C2F",
"}#	c #02902A",
"|#	c #069830",
"1#	c #13A540",
"2#	c #2DAB5E",
"3#	c #7AC9CE",
"4#	c #98D5FE",
"5#	c #0B61DD",
"6#	c #2584EB",
"7#	c #0967DB",
"8#	c #7BC0F4",
"9#	c #80AEC2",
"0#	c #8BB9CD",
"a#	c #7EAABB",
"b#	c #8EB9C7",
"c#	c #8DB3C1",
"d#	c #7EA2AF",
"e#	c #8AAEB8",
"f#	c #8EB2BB",
"g#	c #84A6B0",
"h#	c #CAECEF",
"i#	c #548EC1",
"j#	c #70BBFE",
"k#	c #6FBCFE",
"l#	c #5EB4E4",
"m#	c #46A8B7",
"n#	c #38A192",
"o#	c #309E7F",
"p#	c #2C9F75",
"q#	c #32A582",
"r#	c #47B098",
"s#	c #68BDC4",
"t#	c #8ACAF6",
"u#	c #94D0FE",
"v#	c #97D3FD",
"w#	c #64B0F6",
"x#	c #62B0F5",
"y#	c #68B4F5",
"z#	c #9BDAFE",
"A#	c #AFE7FF",
"B#	c #B4E8FE",
"C#	c #B8EAFE",
"D#	c #BDEEFE",
"E#	c #C0F1FE",
"F#	c #C4F3FE",
"G#	c #CDF4FE",
"H#	c #D2F8FE",
"I#	c #B4D4D7",
"J#	c #67A9E8",
"K#	c #72BBFE",
"L#	c #639BFE",
"M#	c #4976FE",
"N#	c #4B78FE",
"O#	c #4A77FE",
"P#	c #4A76FE",
"Q#	c #4972FA",
"R#	c #6798D4",
"S#	c #98D4FD",
"T#	c #9DD8FE",
"U#	c #A2DCFE",
"V#	c #A8DFFE",
"W#	c #B0E8FF",
"X#	c #B2E8FE",
"Y#	c #BCEDFE",
"Z#	c #BEF0FE",
"`#	c #C4F2FE",
" $	c #C7F3FE",
".$	c #C1E6F1",
"+$	c #5998CE",
"@$	c #69B3F2",
"#$	c #6DBAFA",
"$$	c #6DB8F9",
"%$	c #5F92FA",
"&$	c #487CFF",
"*$	c #4980FF",
"=$	c #477BFF",
"-$	c #4A73B7",
";$	c #7CB7E3",
">$	c #8ECCFB",
",$	c #93D0FA",
"'$	c #97D3FC",
")$	c #9ED7FE",
"!$	c #A1D9FD",
"~$	c #A6DDFA",
"{$	c #A8E0FA",
"]$	c #ACE3FB",
"^$	c #B1E4FA",
"/$	c #B5E6FA",
"($	c #B5E4F5",
"_$	c #A0CBD7",
":$	c #314DA8",
"<$	c #477DFF",
"[$	c #4880FF",
"}$	c #487DFD",
"|$	c #3859C9",
"1$	c #2A3E80",
"2$	c #4065E7",
"3$	c #364FAB",
"4$	c #2F4EB3",
"5$	c #477AFF",
"6$	c #3F6CE2",
"7$	c #487EFF",
"8$	c #4980FE",
"9$	c #3C63DF",
"0$	c #284098",
"a$	c #3251BC",
"b$	c #4675FA",
"c$	c #4676FB",
"d$	c #2E4BB2",
"e$	c #3456C5",
"f$	c #3A62D2",
"g$	c #497FFF",
"h$	c #487DFF",
"i$	c #497EFF",
"j$	c #365DCB",
"k$	c #3961D3",
"l$	c #4371EF",
"m$	c #2F4FAA",
"n$	c #3E6BE2",
"o$	c #4272EF",
"p$	c #3B65D7",
"                                                                ",
"                                                                ",
"                                                                ",
"                          . + @ #                               ",
"                        $ % & & * =                             ",
"                      - ; > , ' ) ! ~   { ]                     ",
"                      ^ /       ( _ _ : < [                     ",
"            } | 1 2 3 4 5 6 7 8 9 0 a b c d e f g h i           ",
"      j k l m n o p q r s t u v w x y z A B C D E F F G H       ",
"      I J K L M N O P Q R t S T U V W X Y Z ` D F F F  ...+.    ",
"    @.#.$.%.&.*.=.-.;.>.,.'.).!.~.{.].^./.(._.:.<.[.F F F }.    ",
"    |.1.2.3.4.5.6.7.8.9.0.a.b.c.d.e.f.g.h.i.j.k.l.m.n.F o.p.    ",
"    q.r.s.t.u.v.w.x.y.z.A.B.C.D.E.F.G.H.I.J.K.L.M.N.O.P.Q.R.    ",
"    S.T.U.V.W.X.Y.Z.`. +.+++@+#+$+%+&+*+=+-+;+>+,+'+)+!+~+{+    ",
"    ]+^+/+(+_+:+<+[+$.}+|+1+2+3+4+F.5+6+7+8+;+9+0+a+b+c+d+e+    ",
"    f+g+h+i+_+j+k+l+m+n+o+1+p+q+r+F.s+t+u+v+w+x+y+z+A+B+C+D+    ",
"    E+F+G+H+I+J+K+L+M+N+O+P+Q+R+S+F.s+T+U+V+W+X+Y+Z+`+ @.@+@    ",
"    @@#@$@%@&@*@=@-@;@>@,@'@)@!@~@%+{@]@^@/@(@_@:@<@[@}@.@|@    ",
"    1@2@3@4@5@6@7@8@9@0@a@++b@c@d@e@f@g@h@i@j@k@l@m@n@o@p@q@    ",
"    r@s@t@u@v@w@x@y@z@A@B@C@D@E@F@G@&+H@I@J@K@L@M@N@O@P@Q@R@    ",
"    S@T@U@V@W@X@Y@Z@`@ #.#+#@###$#%#&#*#=#-#;#>#,#'#)#!#~#{#    ",
"    ]#^#/#(#_#:#<#[#}#|#1#2#3#4#5#6#7#8#9#0#a#b#c#d#e#f#g#h#    ",
"    i#j#k#l#m#n#o#p#q#r#s#t#u#v#w#x#y#z#A#B#C#D#E#F#G#H#o I#    ",
"      J#^#^#j#^#K#L#M#N#O#P#Q#R#S#T#U#V##.W#X#J Y#Z#`# $.$      ",
"        +$@$#$#$$$%$&$*$*$=$-$;$>$,$'$)$!$~${$]$^$/$($_$        ",
"                  :$<$[$*$}$|$      1$2$3$                      ",
"                  4$5$6$7$8$&$9$0$a$b$c$                        ",
"                  d$e$  f$7$*$g$h$7$i$j$                        ",
"                          k$h$*$*$g$l$                          ",
"                            m$n$o$p$                            ",
"                                                                ",
"                                                                "};
